<svg width="1725" height="1633" viewBox="0 0 1725 1633" fill="none" xmlns="http://www.w3.org/2000/svg">
<path d="M1606.45 622.475C1649.14 713.74 1673 815.584 1673 923C1673 1315.12 1355.12 1633 963 1633C798.042 1633 646.225 1576.74 525.684 1482.37C533.207 1479.4 540.719 1476.28 548.21 1472.98C590.857 1454.18 631.759 1430.21 670.336 1399.36C755.461 1451.77 855.7 1482 963 1482C1271.73 1482 1522 1231.73 1522 923C1522 870.443 1514.74 819.581 1501.18 771.358C1542.3 718.91 1577.15 669.096 1606.45 622.475ZM963 213C1094.04 213 1216.78 248.501 1322.15 310.406C1304.32 359.585 1284.61 406.685 1263.56 451.597C1176.76 396.142 1073.64 364 963 364C654.273 364 404 614.273 404 923C404 987.779 415.02 1049.98 435.286 1107.84C387.072 1116.37 340.771 1116.64 296.956 1112.58C290.541 1111.99 284.24 1111.32 278.043 1110.57C261.718 1050.82 253 987.929 253 923C253 530.878 570.878 213 963 213ZM1476.83 687.865C1475.76 689.306 1474.69 690.75 1473.61 692.196C1474.69 690.75 1475.76 689.306 1476.83 687.865ZM1480.65 682.688C1479.65 684.05 1478.64 685.414 1477.63 686.78C1478.64 685.414 1479.65 684.05 1480.65 682.688ZM1497.92 658.793C1498.91 657.397 1499.9 656.005 1500.88 654.615L1500.88 654.616C1500.16 655.643 1499.43 656.671 1498.7 657.701C1498.44 658.065 1498.18 658.429 1497.92 658.793ZM1524.65 619.988C1523.71 621.401 1522.76 622.817 1521.81 624.236C1522.76 622.817 1523.71 621.401 1524.65 619.988ZM1529.73 612.332C1528.43 614.304 1527.12 616.282 1525.8 618.267C1525.53 618.67 1525.26 619.072 1524.99 619.476C1526.77 616.802 1528.54 614.139 1530.28 611.487C1530.1 611.769 1529.91 612.051 1529.73 612.332ZM1533.6 606.434C1532.76 607.718 1531.92 609.004 1531.07 610.293C1531.92 609.004 1532.76 607.718 1533.6 606.434ZM1560.64 563.372L1558.94 566.177C1559.75 564.844 1560.55 563.514 1561.35 562.188C1561.12 562.582 1560.88 562.977 1560.64 563.372ZM1563.99 557.792C1563.22 559.076 1562.45 560.361 1561.67 561.651C1562.45 560.361 1563.22 559.075 1563.99 557.791V557.792ZM1378.83 358.845C1378.63 359.39 1378.42 359.936 1378.21 360.481C1378.42 359.936 1378.63 359.39 1378.83 358.845ZM1381.6 351.507C1381.25 352.435 1380.91 353.362 1380.56 354.289C1380.91 353.362 1381.25 352.435 1381.6 351.507ZM1497.47 659.435C1496.41 660.919 1495.35 662.408 1494.29 663.898C1495.35 662.408 1496.41 660.919 1497.47 659.435Z" fill="url(#paint0_linear_2282_16)"/>
<path d="M905.291 824.29C436.545 1364.18 73.8758 1169.65 16.3704 1145.34C12.2168 1143.59 8.43149 1146.01 7.39054 1150.4C-6.74635 1209.99 2.55542 1274.06 9.27615 1299.5C49.6761 1409.9 155.776 1444.17 203.776 1447.5C530.41 1460.18 743.907 1196.97 811.958 1060.19C812.428 1059.25 813.81 1059.66 813.82 1060.72C814.964 1191.75 796.846 1333.67 787.172 1391.17C787.024 1392.05 788.037 1392.6 788.763 1392.08C1245.75 1064.68 1509.58 631.805 1589.76 445.216C1592.21 439.526 1599.06 437.502 1604.31 440.792L1708.96 506.401C1715.62 510.576 1724.28 505.789 1724.28 497.928V16.1885C1724.28 8.75268 1716.45 3.91784 1709.8 7.2462L1293.94 215.407C1287.13 218.817 1286.48 228.286 1292.76 232.596L1401.66 307.301C1405.29 309.794 1406.85 314.411 1405.5 318.605C1280.6 705.534 1032.73 972.14 908.586 1070.62C901.945 1075.89 892.537 1070.66 893.039 1062.2L907.102 824.942C907.158 823.988 905.918 823.568 905.291 824.29Z" fill="url(#paint1_linear_2282_16)"/>
<defs>
<linearGradient id="paint0_linear_2282_16" x1="963" y1="213" x2="963" y2="1633" gradientUnits="userSpaceOnUse">
<stop stop-color="#3793F0"/>
<stop offset="1" stop-color="#184ED4"/>
</linearGradient>
<linearGradient id="paint1_linear_2282_16" x1="1724" y1="151" x2="166" y2="1448" gradientUnits="userSpaceOnUse">
<stop stop-color="#4AA9F7"/>
<stop offset="1" stop-color="#1B59DB"/>
</linearGradient>
</defs>
</svg>
